# xmcd
#
# Track frame offsets:
#	150
#	11090
#	23808
#	41373
#	52525
#	67297
#	81431
#	92647
#	106695
#	115788
#	129639
#	143543
#	154431
#	166317
#	179186
#	191767
#	203551
#	214309
#	226575
#	241835
#	260720
#	272006
#
# Disc length: 3802 seconds
#
# Revision: 0
# Processed by: cddbd v1.5.2PL0 Copyright (c) Steve Scherf et al.
# Submitted via: EasyCDDAExtractor 16.0.6.1
#
DISCID=310ed816
DTITLE=Various Artist - Country Sunrise [Disc 06]
DYEAR=2006
DGENRE=Country
TTITLE0=Jim Reeves - I Love You
TTITLE1=Exile - Give Me One More Chance
TTITLE2=Deborah Allen - Baby I Lied
TTITLE3=Bill Anderson - I Get The Fever
TTITLE4=T. Graham Brown - Darlene
TTITLE5=Holly Dunn - Love Someone Like Me
TTITLE6=Johnny Cash - Cry, Cry, Cry,
TTITLE7=Merle Haggard - Always Wanting You
TTITLE8=Sandy Posey - Born A Woman
TTITLE9=Anthony Armstrong Jones - Take A Letter Maria
TTITLE10=Barbara Fairchild - Teddy Bear Song
TTITLE11=Bill Carlisle - What Kind Of Deal Is This
TTITLE12=The Kendalls - Sweet Desire
TTITLE13=Webb Pierce - Love, Love, Love
TTITLE14=Porter Wagoner - A Satisfied Mind
TTITLE15=Bobby Goldsboro - Watching Scotty grow
TTITLE16=Billy Walker - Charlies Shoes
TTITLE17=Bobby Helms - Fraulein
TTITLE18=Cal Smith - Country Bumpkin
TTITLE19=Juice Newton - Angel Of The Morning
TTITLE20=Patsy Cline - Just Out Of Reach
TTITLE21=Conway Twitty - After All The Good Is Gone
EXTD=
EXTT0=
EXTT1=
EXTT2=
EXTT3=
EXTT4=
EXTT5=
EXTT6=
EXTT7=
EXTT8=
EXTT9=
EXTT10=
EXTT11=
EXTT12=
EXTT13=
EXTT14=
EXTT15=
EXTT16=
EXTT17=
EXTT18=
EXTT19=
EXTT20=
EXTT21=
PLAYORDER=
